<?xml version="1.0" encoding="UTF-8"?>
<!DOCTYPE svg PUBLIC "-//W3C//DTD SVG 1.1//EN" "http://www.w3.org/Graphics/SVG/1.1/DTD/svg11.dtd">
<!-- Creator: CorelDRAW 2019 (64-Bit Evaluation Version) -->
<svg xmlns="http://www.w3.org/2000/svg" xml:space="preserve" width="197px" height="37px" version="1.1" style="shape-rendering:geometricPrecision; text-rendering:geometricPrecision; image-rendering:optimizeQuality; fill-rule:evenodd; clip-rule:evenodd"
viewBox="0 0 209.42 39.36"
 xmlns:xlink="http://www.w3.org/1999/xlink"
 xmlns:xodm="http://www.corel.com/coreldraw/odm/2003">
 <defs>
  <style type="text/css">
   <![CDATA[
    .fil0 {fill:#26B8F3;fill-rule:nonzero}
    .fil1 {fill:#333333;fill-rule:nonzero}
   ]]>
  </style>
 </defs>
 <g id="Layer_x0020_1">
  <metadata id="CorelCorpID_0Corel-Layer"/>
  <path class="fil0" d="M8.84 22.42l-2.31 0 0 8.4 -4.65 0 0 -23.06 7.42 0c2.33,0 4.14,0.6 5.41,1.81 1.27,1.22 1.91,2.94 1.91,5.17 0,3.07 -1.11,5.22 -3.34,6.44l4.04 9.42 0 0.22 -5.01 0 -3.47 -8.4zm-2.31 -3.89l2.64 0c0.93,0 1.63,-0.31 2.1,-0.93 0.46,-0.62 0.69,-1.45 0.69,-2.48 0,-2.31 -0.9,-3.47 -2.7,-3.47l-2.73 0 0 6.88z"/>
  <path id="1" class="fil0" d="M36.06 21.37c0,3.09 -0.73,5.49 -2.2,7.21 -1.46,1.71 -3.49,2.57 -6.09,2.57 -2.59,0 -4.62,-0.85 -6.1,-2.55 -1.47,-1.69 -2.22,-4.07 -2.24,-7.12l0 -3.95c0,-3.17 0.73,-5.65 2.2,-7.43 1.47,-1.77 3.5,-2.67 6.11,-2.67 2.57,0 4.59,0.88 6.07,2.63 1.48,1.75 2.22,4.2 2.25,7.36l0 3.95zm-4.68 -3.88c0,-2.08 -0.29,-3.63 -0.88,-4.64 -0.59,-1.02 -1.51,-1.52 -2.76,-1.52 -1.23,0 -2.15,0.48 -2.74,1.46 -0.59,0.98 -0.9,2.47 -0.92,4.46l0 4.11c0,2.02 0.3,3.5 0.9,4.46 0.61,0.96 1.54,1.43 2.79,1.43 1.22,0 2.12,-0.46 2.71,-1.4 0.59,-0.93 0.89,-2.39 0.9,-4.35l0 -4.01z"/>
  <path id="2" class="fil0" d="M50.06 26.12l-6.34 0 -1.24 4.7 -4.93 0 7.21 -23.06 4.26 0 7.26 23.06 -4.98 0 -1.24 -4.7zm-5.33 -3.89l4.31 0 -2.16 -8.23 -2.15 8.23z"/>
  <path id="3" class="fil0" d="M58.43 30.82l0 -23.06 6.1 0c2.69,0 4.84,0.85 6.44,2.57 1.6,1.7 2.42,4.05 2.44,7.03l0 3.74c0,3.03 -0.8,5.41 -2.39,7.13 -1.6,1.73 -3.81,2.59 -6.62,2.59l-5.97 0zm4.66 -19.17l0 15.31 1.39 0c1.55,0 2.65,-0.41 3.28,-1.23 0.64,-0.81 0.97,-2.22 1,-4.23l0 -4c0,-2.16 -0.3,-3.66 -0.9,-4.51 -0.6,-0.85 -1.63,-1.3 -3.07,-1.34l-1.7 0z"/>
  <path id="4" class="fil1" d="M84.37 21.51l-4.06 0 0 9.31 -2.91 0 0 -23.06 6.46 0c2.26,0 3.97,0.59 5.13,1.77 1.16,1.17 1.75,2.9 1.75,5.18 0,1.42 -0.32,2.67 -0.95,3.73 -0.63,1.07 -1.52,1.87 -2.67,2.41l4.47 9.78 0 0.19 -3.12 0 -4.1 -9.31zm-4.06 -2.5l3.52 0c1.21,0 2.18,-0.38 2.91,-1.17 0.72,-0.78 1.08,-1.83 1.08,-3.14 0,-2.96 -1.34,-4.44 -4.03,-4.44l-3.48 0 0 8.75z"/>
  <path id="5" class="fil1" d="M108.37 7.76l0 16.4c-0.03,2.19 -0.66,3.89 -1.9,5.13 -1.25,1.24 -2.99,1.86 -5.21,1.86 -2.28,0 -4.03,-0.61 -5.23,-1.82 -1.21,-1.21 -1.82,-2.93 -1.84,-5.17l0 -16.4 2.88 0 0 16.27c0,1.55 0.34,2.7 1,3.47 0.66,0.76 1.72,1.15 3.19,1.15 1.47,0 2.54,-0.39 3.2,-1.15 0.66,-0.77 0.99,-1.92 0.99,-3.47l0 -16.27 2.92 0z"/>
  <polygon id="6" class="fil1" points="127.88,30.82 124.97,30.82 115.74,13.05 115.74,30.82 112.82,30.82 112.82,7.76 115.74,7.76 125,25.61 125,7.76 127.88,7.76 "/>
  <polygon id="7" class="fil1" points="147.97,30.82 145.05,30.82 135.82,13.05 135.82,30.82 132.91,30.82 132.91,7.76 135.82,7.76 145.09,25.61 145.09,7.76 147.97,7.76 "/>
  <polygon id="8" class="fil1" points="156.02,30.82 153.12,30.82 153.12,7.76 156.02,7.76 "/>
  <polygon id="9" class="fil1" points="176.16,30.82 173.25,30.82 164.01,13.05 164.01,30.82 161.1,30.82 161.1,7.76 164.01,7.76 173.28,25.61 173.28,7.76 176.16,7.76 "/>
  <path id="10" class="fil1" d="M195.62 27.96l-0.5 0.63c-1.46,1.71 -3.59,2.56 -6.4,2.56 -2.5,0 -4.45,-0.83 -5.87,-2.49 -1.42,-1.65 -2.15,-3.99 -2.18,-7.01l0 -4.53c0,-3.24 0.64,-5.66 1.94,-7.27 1.29,-1.61 3.23,-2.42 5.8,-2.42 2.2,0 3.92,0.61 5.16,1.84 1.24,1.22 1.93,2.97 2.05,5.24l-2.9 0c-0.11,-1.44 -0.51,-2.56 -1.19,-3.37 -0.68,-0.8 -1.72,-1.21 -3.1,-1.21 -1.65,0 -2.87,0.54 -3.64,1.62 -0.77,1.08 -1.17,2.81 -1.2,5.19l0 4.7c0,2.33 0.44,4.11 1.33,5.35 0.88,1.24 2.15,1.86 3.81,1.86 1.56,0 2.75,-0.38 3.57,-1.14l0.42 -0.39 0 -5.28 -4.21 0 0 -2.5 7.11 0 0 8.62z"/>
 </g>
</svg>
